<svg width="18" height="19" fill="none" xmlns="http://www.w3.org/2000/svg"><path d="M10.091 3.007a.527.527 0 000 1.055 4.751 4.751 0 014.745 4.747.527.527 0 101.054 0 5.807 5.807 0 00-5.799-5.802z" fill="#FFD569"/><path d="M10.091.898a.527.527 0 000 1.055c3.78 0 6.854 3.076 6.854 6.857a.527.527 0 101.054 0C18 4.447 14.452.898 10.091.898zm0 4.22a.527.527 0 000 1.055 2.64 2.64 0 012.636 2.637.527.527 0 101.054 0 3.695 3.695 0 00-3.69-3.692zm7.447 9.769l-2.983-2.983a1.58 1.58 0 00-2.237 0l-.745.746a1.584 1.584 0 01-2.24-.003L6.212 9.565a1.584 1.584 0 010-2.238l.745-.746a1.584 1.584 0 000-2.238L3.974 1.36a1.583 1.583 0 00-2.237 0l-.745.746c-.968.968-1.253 3.102-.743 5.57.325 1.573 1.26 4.601 3.868 7.211 2.603 2.605 5.606 3.499 7.164 3.8 1.712.33 4.286.409 5.51-.816l.747-.746a1.585 1.585 0 000-2.238zM2.483 2.106a.528.528 0 01.746 0L6.21 5.089a.528.528 0 010 .746l-.37.371-3.729-3.73.371-.37zm8.998 15.545c-1.44-.278-4.214-1.104-6.619-3.51-2.414-2.415-3.28-5.22-3.58-6.678-.399-1.93-.233-3.382.154-4.17l3.696 3.696a2.644 2.644 0 00.336 3.324l3.122 3.082a2.64 2.64 0 003.32.334l3.699 3.7c-1.127.572-2.88.463-4.128.222zm5.31-1.272l-.37.371-3.728-3.73.37-.37a.527.527 0 01.746 0l2.983 2.983a.528.528 0 010 .746z" fill="#FFD569"/><path d="M10.091 7.226a.527.527 0 000 1.055c.29 0 .527.236.527.527a.527.527 0 101.055 0c0-.872-.71-1.582-1.582-1.582z" fill="#FFD569"/></svg>