<svg width="114" height="83" fill="none" xmlns="http://www.w3.org/2000/svg"><path d="M50.804 76.547v-8.145L76.09 65.82v8.145c0 .465-.226.93-.677 1.195l-12.657 7.444c-.9.53-2.009.53-2.909 0l-8.367-4.861a1.372 1.372 0 01-.677-1.195z" fill="url(#paint0_linear)"/><path d="M75.414 64.625l-8.368-4.86a2.86 2.86 0 00-2.909 0l-12.656 7.443c-.903.531-.903 1.859 0 2.39l8.367 4.86c.9.53 2.01.53 2.91 0l12.656-7.443c.903-.531.903-1.859 0-2.39z" fill="url(#paint1_linear)"/><path d="M24.018 60.78v-8.145l25.287-2.583v8.145c0 .464-.225.929-.677 1.194l-12.656 7.444c-.9.53-2.01.53-2.91 0l-8.367-4.86a1.371 1.371 0 01-.677-1.196z" fill="url(#paint2_linear)"/><path d="M48.628 48.859l-8.367-4.861c-.9-.53-2.01-.53-2.91 0l-12.656 7.444c-.903.53-.903 1.858 0 2.389l8.367 4.861c.9.53 2.01.53 2.91 0l12.656-7.444c.903-.53.903-1.858 0-2.39z" fill="url(#paint3_linear)"/><path d="M0 46.632v-8.145l25.287-2.583v8.145c0 .465-.225.93-.677 1.195l-12.656 7.444c-.9.53-2.01.53-2.91 0L.678 47.827A1.372 1.372 0 010 46.632z" fill="url(#paint4_linear)"/><path d="M24.61 34.708l-8.367-4.86c-.9-.53-2.01-.53-2.91 0L.678 37.29c-.903.531-.903 1.859 0 2.39l8.368 4.86c.9.53 2.009.53 2.909 0l12.656-7.443c.903-.531.903-1.859 0-2.39z" fill="url(#paint5_linear)"/><path d="M88.705 54.354V46.21l25.287-2.583v8.145c0 .465-.225.93-.677 1.195l-12.656 7.444c-.9.53-2.01.53-2.91 0l-8.367-4.861a1.371 1.371 0 01-.677-1.195z" fill="url(#paint6_linear)"/><path d="M113.315 42.43l-8.367-4.86a2.864 2.864 0 00-2.91 0l-12.656 7.443c-.903.531-.903 1.859 0 2.39l8.367 4.86c.9.53 2.01.53 2.91 0l12.656-7.443c.903-.531.903-1.858 0-2.39z" fill="url(#paint7_linear)"/><path d="M0 38.62v-3.626L76.091 62.3v3.627c0 .464-.226.929-.677 1.195l-12.657 7.444c-.9.529-2.009.529-2.909 0L.678 39.815A1.371 1.371 0 010 38.621z" fill="url(#paint8_linear)"/><path d="M75.414 61.106L16.243 26.355c-.9-.53-2.01-.53-2.91 0L.678 33.798c-.903.532-.903 1.859 0 2.39l59.171 34.75c.9.53 2.01.53 2.91 0l12.656-7.443c.903-.531.903-1.858 0-2.39z" fill="url(#paint9_linear)"/><path d="M37.901 16.275v-3.627l76.091 27.308v3.627c0 .464-.225.929-.677 1.194l-12.656 7.444c-.9.53-2.01.53-2.91 0l-59.17-34.75a1.372 1.372 0 01-.678-1.196z" fill="url(#paint10_linear)"/><path d="M113.315 38.76L54.144 4.01c-.9-.53-2.009-.53-2.91 0l-12.656 7.443c-.903.531-.903 1.859 0 2.39l59.171 34.75c.9.53 2.01.53 2.91 0l12.656-7.443c.903-.531.903-1.859 0-2.39z" fill="url(#paint11_linear)"/><path d="M67.65 12.663V9.036L0 31.426v3.628c0 .464.226.929.677 1.194l12.657 7.444c.9.53 2.009.53 2.909 0l50.73-29.834c.451-.266.677-.73.677-1.195z" fill="url(#paint12_linear)"/><path d="M.677 30.232L51.407.397c.9-.53 2.01-.53 2.91 0l12.656 7.444c.903.531.903 1.858 0 2.39l-50.73 29.834c-.9.53-2.01.53-2.91 0L.678 32.621c-.903-.53-.903-1.858 0-2.39z" fill="url(#paint13_linear)"/><path d="M90.825 26.356v-3.627L23.175 45.12v3.627c0 .464.226.93.677 1.195l12.657 7.444c.9.53 2.009.53 2.909 0l50.73-29.835c.452-.266.677-.73.677-1.195z" fill="url(#paint14_linear)"/><path d="M23.852 43.925l50.73-29.835c.9-.53 2.01-.53 2.91 0l12.656 7.444c.903.53.903 1.858 0 2.39l-50.73 29.834c-.9.53-2.01.53-2.91 0l-12.656-7.444c-.903-.53-.903-1.858 0-2.39z" fill="url(#paint15_linear)"/><path d="M114 40.05v-3.628L46.35 58.813v3.627c0 .465.225.93.677 1.195l12.656 7.444c.9.53 2.01.53 2.91 0l50.73-29.835c.451-.265.677-.73.677-1.195z" fill="url(#paint16_linear)"/><path d="M47.027 57.62l50.73-29.836c.9-.53 2.01-.53 2.909 0l12.657 7.444c.903.531.903 1.858 0 2.39l-50.73 29.834c-.9.53-2.01.53-2.91 0l-12.656-7.444c-.903-.53-.903-1.858 0-2.389z" fill="url(#paint17_linear)"/><defs><linearGradient id="paint0_linear" x1="58.448" y1="74.41" x2="63.695" y2="74.41" gradientUnits="userSpaceOnUse"><stop stop-color="#CC8241"/><stop offset="1" stop-color="#DEA861"/></linearGradient><linearGradient id="paint1_linear" x1="71.101" y1="62.61" x2="56.829" y2="70.699" gradientUnits="userSpaceOnUse"><stop stop-color="#DEA861"/><stop offset="1" stop-color="#EBCBA0"/></linearGradient><linearGradient id="paint2_linear" x1="31.663" y1="58.642" x2="36.909" y2="58.642" gradientUnits="userSpaceOnUse"><stop stop-color="#CC8241"/><stop offset="1" stop-color="#DEA861"/></linearGradient><linearGradient id="paint3_linear" x1="44.315" y1="46.843" x2="30.043" y2="54.932" gradientUnits="userSpaceOnUse"><stop stop-color="#DEA861"/><stop offset="1" stop-color="#EBCBA0"/></linearGradient><linearGradient id="paint4_linear" x1="7.645" y1="44.495" x2="12.891" y2="44.495" gradientUnits="userSpaceOnUse"><stop stop-color="#CC8241"/><stop offset="1" stop-color="#DEA861"/></linearGradient><linearGradient id="paint5_linear" x1="20.297" y1="32.693" x2="6.025" y2="40.782" gradientUnits="userSpaceOnUse"><stop stop-color="#DEA861"/><stop offset="1" stop-color="#EBCBA0"/></linearGradient><linearGradient id="paint6_linear" x1="96.349" y1="52.217" x2="101.596" y2="52.217" gradientUnits="userSpaceOnUse"><stop stop-color="#CC8241"/><stop offset="1" stop-color="#DEA861"/></linearGradient><linearGradient id="paint7_linear" x1="109.002" y1="40.415" x2="94.73" y2="48.504" gradientUnits="userSpaceOnUse"><stop stop-color="#DEA861"/><stop offset="1" stop-color="#EBCBA0"/></linearGradient><linearGradient id="paint8_linear" x1="61.804" y1="54.978" x2="57.353" y2="54.978" gradientUnits="userSpaceOnUse"><stop stop-color="#CC8241"/><stop offset="1" stop-color="#DEA861"/></linearGradient><linearGradient id="paint9_linear" x1="55.236" y1="38.536" x2="23.179" y2="56.704" gradientUnits="userSpaceOnUse"><stop stop-color="#DEA861"/><stop offset="1" stop-color="#EBCBA0"/></linearGradient><linearGradient id="paint10_linear" x1="99.705" y1="32.633" x2="95.254" y2="32.633" gradientUnits="userSpaceOnUse"><stop stop-color="#CC8241"/><stop offset="1" stop-color="#DEA861"/></linearGradient><linearGradient id="paint11_linear" x1="93.138" y1="16.191" x2="61.08" y2="34.359" gradientUnits="userSpaceOnUse"><stop stop-color="#DEA861"/><stop offset="1" stop-color="#EBCBA0"/></linearGradient><linearGradient id="paint12_linear" x1="12.702" y1="26.563" x2="16.66" y2="26.563" gradientUnits="userSpaceOnUse"><stop stop-color="#CC8241"/><stop offset="1" stop-color="#DEA861"/></linearGradient><linearGradient id="paint13_linear" x1="18.227" y1="11.057" x2="47.315" y2="27.542" gradientUnits="userSpaceOnUse"><stop stop-color="#DEA861"/><stop offset="1" stop-color="#EBCBA0"/></linearGradient><linearGradient id="paint14_linear" x1="35.877" y1="40.256" x2="39.835" y2="40.256" gradientUnits="userSpaceOnUse"><stop stop-color="#CC8241"/><stop offset="1" stop-color="#DEA861"/></linearGradient><linearGradient id="paint15_linear" x1="41.402" y1="24.75" x2="70.49" y2="41.235" gradientUnits="userSpaceOnUse"><stop stop-color="#DEA861"/><stop offset="1" stop-color="#EBCBA0"/></linearGradient><linearGradient id="paint16_linear" x1="59.052" y1="53.949" x2="63.01" y2="53.949" gradientUnits="userSpaceOnUse"><stop stop-color="#CC8241"/><stop offset="1" stop-color="#DEA861"/></linearGradient><linearGradient id="paint17_linear" x1="64.577" y1="38.444" x2="93.664" y2="54.929" gradientUnits="userSpaceOnUse"><stop stop-color="#DEA861"/><stop offset="1" stop-color="#EBCBA0"/></linearGradient></defs></svg>