<svg xmlns="http://www.w3.org/2000/svg" viewBox="0 0 300 300" fill="none">
  <defs/>
  <defs>
    <linearGradient gradientTransform="matrix(.44004 0 0 .39334 25.8 -142.9)" gradientUnits="userSpaceOnUse" y2="48.5" x2="94.7" y1="40.4" x1="109" id="d">
      <stop stop-color="#DEA861"/>
      <stop stop-color="#EBCBA0" offset="1"/>
    </linearGradient>
    <linearGradient gradientTransform="matrix(.44004 0 0 .39334 25.8 -142.9)" gradientUnits="userSpaceOnUse" y2="40.8" x2="6" y1="32.7" x1="20.3" id="c">
      <stop stop-color="#DEA861"/>
      <stop stop-color="#EBCBA0" offset="1"/>
    </linearGradient>
    <linearGradient gradientTransform="matrix(.44004 0 0 .39334 25.8 -142.9)" gradientUnits="userSpaceOnUse" y2="54.9" x2="30" y1="46.8" x1="44.3" id="b">
      <stop stop-color="#DEA861"/>
      <stop stop-color="#EBCBA0" offset="1"/>
    </linearGradient>
    <linearGradient gradientTransform="matrix(.44004 0 0 .39334 25.8 -142.9)" gradientUnits="userSpaceOnUse" y2="70.7" x2="56.8" y1="62.6" x1="71.1" id="a">
      <stop stop-color="#DEA861"/>
      <stop stop-color="#EBCBA0" offset="1"/>
    </linearGradient>
  </defs>
  <path fill="#fff" d="M2.5 2.3h294.7V297H2.5z"/>
  <g stroke-width=".4">
    <path d="M85.2-50.8v-8.1l25.3-2.6v8.2c0 .4-.2.9-.6 1.1l-12.7 7.5c-.9.5-2 .5-3 0L86-49.6a1.4 1.4 0 01-.7-1.2z" fill="#fff" stroke="#000" transform="matrix(2.27253 0 0 2.54235 -58.5 363.3)"/>
    <path d="M109.9-62.7l-8.4-4.8a2.9 2.9 0 00-3 0L86-60.1c-.9.5-.9 1.9 0 2.4l8.4 4.8c.9.6 2 .6 2.9 0l12.7-7.4c.9-.5.9-1.9 0-2.4z" fill="url(#a)" transform="matrix(2.27253 0 0 2.54235 -58.5 363.3)"/>
    <path d="M58.5-66.5v-8.2l25.2-2.6v8.2c0 .4-.2 1-.6 1.2l-12.7 7.4c-.9.6-2 .6-2.9 0l-8.4-4.8a1.4 1.4 0 01-.6-1.2z" fill="#fff" stroke="#000" transform="matrix(2.27253 0 0 2.54235 -58.5 363.3)"/>
    <path d="M83-78.5l-8.3-4.8c-.9-.5-2-.5-3 0L59.2-76c-.9.6-.9 1.9 0 2.4l8.4 4.9c.9.5 2 .5 3 0L83-76.1c.9-.5.9-1.8 0-2.4z" fill="url(#b)" transform="matrix(2.27253 0 0 2.54235 -58.5 363.3)"/>
    <path d="M34.4-80.7v-8.1l25.3-2.6v8.1c0 .5-.2 1-.6 1.2l-12.7 7.5c-1 .5-2 .5-3 0l-8.3-4.9a1.4 1.4 0 01-.7-1.2z" fill="#fff" stroke="#000" transform="matrix(2.27253 0 0 2.54235 -58.5 363.3)"/>
    <path d="M59-92.6l-8.3-4.9c-1-.5-2-.5-3 0L35.2-90c-.9.5-.9 1.8 0 2.4l8.4 4.8c.9.6 2 .6 2.9 0l12.7-7.4c.9-.5.9-1.9 0-2.4z" fill="url(#c)" transform="matrix(2.27253 0 0 2.54235 -58.5 363.3)"/>
    <path d="M123.1-73V-81l25.3-2.6v8.2c0 .4-.2.9-.6 1.2L135-67c-.9.5-2 .5-3 0l-8.3-4.9a1.4 1.4 0 01-.7-1.2z" fill="#fff" stroke="#000" transform="matrix(2.27253 0 0 2.54235 -58.5 363.3)"/>
    <path d="M147.8-84.9l-8.4-4.8a2.9 2.9 0 00-3 0l-12.6 7.4c-.9.5-.9 1.9 0 2.4l8.4 4.8c.9.6 2 .6 2.9 0l12.7-7.4c.9-.5.9-1.9 0-2.4z" fill="url(#d)" transform="matrix(2.27253 0 0 2.54235 -58.5 363.3)"/>
    <path d="M34.4-88.7v-3.6L110.5-65v3.6c0 .5-.2 1-.6 1.2l-12.7 7.5c-.9.5-2 .5-3 0l-59-34.8a1.4 1.4 0 01-.8-1.2z" fill="#fff" stroke="#000" transform="matrix(2.27253 0 0 2.54235 -58.5 363.3)"/>
    <path d="M109.9-66.2L50.7-101c-1-.5-2-.5-3 0l-12.6 7.5c-.9.5-.9 1.8 0 2.4l59.2 34.7c.9.6 2 .6 2.9 0l12.7-7.4c.9-.6.9-1.9 0-2.4zM72.3-111v-3.7l76.1 27.3v3.7c0 .4-.2.9-.6 1.2L135-75.1c-.9.5-2 .5-3 0l-59-34.7a1.4 1.4 0 01-.8-1.2z" fill="#fff" stroke="#000" transform="matrix(2.27253 0 0 2.54235 -58.5 363.3)"/>
    <path d="M147.8-88.6l-59.2-34.7c-1-.5-2-.5-3 0L73-115.9c-.9.6-.9 1.9 0 2.4l59.2 34.8c.9.5 2 .5 2.9 0l12.7-7.5c.9-.5.9-1.8 0-2.4z" fill="#fff" stroke="#000" transform="matrix(2.27253 0 0 2.54235 -58.5 363.3)"/>
    <path d="M102-114.7v-3.6L34.5-95.9v3.6c0 .5.3 1 .7 1.2l12.7 7.5c.9.5 2 .5 2.9 0l50.7-29.9c.5-.2.7-.7.7-1.2z" fill="#fff" stroke="#000" transform="matrix(2.27253 0 0 2.54235 -58.5 363.3)"/>
    <path d="M35.1-97l50.7-30c1-.4 2-.4 3 0l12.6 7.5c1 .6 1 1.9 0 2.4L50.7-87.2c-1 .5-2 .5-3 0l-12.6-7.5c-.9-.5-.9-1.9 0-2.4zM125.3-101v-3.6L57.6-82.2v3.6c0 .5.2 1 .7 1.2l12.6 7.5c1 .5 2 .5 3 0l50.7-29.9c.4-.2.7-.7.7-1.2z" fill="#fff" stroke="#000" transform="matrix(2.27253 0 0 2.54235 -58.5 363.3)"/>
    <path d="M58.3-83.4l50.7-29.8c1-.6 2-.6 3 0l12.6 7.4c.9.5.9 1.9 0 2.4L73.9-73.6c-1 .6-2 .6-3 0L58.3-81c-1-.5-1-1.9 0-2.4zM148.4-87.3v-3.6L80.8-68.5v3.6c0 .5.2 1 .7 1.2L94-56.2c1 .5 2 .5 3 0l50.7-29.9c.4-.2.6-.7.6-1.2z" fill="#fff" stroke="#000" transform="matrix(2.27253 0 0 2.54235 -58.5 363.3)"/>
    <path d="M81.5-69.7l50.7-29.8c.9-.6 2-.6 3 0l12.6 7.4c.9.5.9 1.9 0 2.4L97-59.9c-.9.6-2 .6-2.9 0l-12.6-7.4c-1-.5-1-1.9 0-2.4z" fill="#fff" stroke="#000" transform="matrix(2.27253 0 0 2.54235 -58.5 363.3)"/>
  </g>
</svg>
