<svg viewBox="0 0 114 83" fill="none" xmlns="http://www.w3.org/2000/svg"><defs/><path d="M50.8 76.55V68.4l25.29-2.58v8.14c0 .47-.23.93-.68 1.2L62.76 82.6c-.9.53-2.01.53-2.91 0l-8.37-4.86a1.37 1.37 0 01-.68-1.2z" fill="url(#paint0_linear)"/><path d="M75.41 64.63l-8.36-4.86a2.86 2.86 0 00-2.91 0L51.48 67.2a1.4 1.4 0 000 2.39l8.37 4.86c.9.53 2 .53 2.9 0l12.66-7.44c.9-.54.9-1.86 0-2.4z" fill="url(#paint1_linear)"/><path d="M24.02 60.78v-8.14l25.29-2.59v8.15c0 .46-.23.93-.68 1.2l-12.66 7.44c-.9.53-2 .53-2.9 0l-8.38-4.86a1.37 1.37 0 01-.67-1.2z" fill="url(#paint2_linear)"/><path d="M48.63 48.86L40.26 44a2.86 2.86 0 00-2.9 0l-12.67 7.44a1.4 1.4 0 000 2.4l8.37 4.85c.9.53 2.01.53 2.91 0l12.66-7.44c.9-.53.9-1.86 0-2.4z" fill="url(#paint3_linear)"/><path d="M0 46.63V38.5l25.29-2.59v8.15c0 .46-.23.93-.68 1.2l-12.66 7.44c-.9.53-2 .53-2.9 0L.67 47.83a1.37 1.37 0 01-.68-1.2z" fill="url(#paint4_linear)"/><path d="M24.61 34.7l-8.37-4.85a2.86 2.86 0 00-2.9 0L.67 37.29a1.4 1.4 0 000 2.39l8.37 4.86c.9.53 2 .53 2.9 0l12.66-7.44c.9-.53.9-1.86 0-2.4z" fill="url(#paint5_linear)"/><path d="M88.7 54.35v-8.14l25.3-2.58v8.14c0 .47-.23.93-.69 1.2l-12.65 7.44c-.9.53-2.01.53-2.91 0l-8.37-4.86a1.37 1.37 0 01-.68-1.2z" fill="url(#paint6_linear)"/><path d="M113.31 42.43l-8.36-4.86a2.86 2.86 0 00-2.91 0l-12.66 7.44a1.4 1.4 0 000 2.4l8.37 4.85c.9.53 2 .53 2.9 0l12.66-7.44c.9-.53.9-1.86 0-2.39z" fill="url(#paint7_linear)"/><path d="M0 38.62v-3.63L76.1 62.3v3.63c0 .46-.24.93-.69 1.2l-12.65 7.44c-.9.52-2.01.52-2.91 0L.68 39.82a1.37 1.37 0 01-.68-1.2z" fill="url(#paint8_linear)"/><path d="M75.41 61.1L16.24 26.36a2.86 2.86 0 00-2.9 0L.67 33.8a1.4 1.4 0 000 2.39l59.17 34.75c.9.53 2 .53 2.9 0l12.67-7.44c.9-.54.9-1.86 0-2.4z" fill="url(#paint9_linear)"/><path d="M37.9 16.27v-3.62l76.1 27.3v3.63c0 .47-.23.93-.69 1.2l-12.65 7.44c-.9.53-2.01.53-2.91 0L38.58 17.47a1.37 1.37 0 01-.68-1.2z" fill="url(#paint10_linear)"/><path d="M113.31 38.76L54.14 4.01c-.9-.53-2-.53-2.9 0l-12.66 7.44a1.4 1.4 0 000 2.4l59.17 34.74c.9.53 2 .53 2.9 0l12.66-7.44c.9-.53.9-1.86 0-2.39z" fill="url(#paint11_linear)"/><path d="M67.65 12.66V9.04L0 31.43v3.62c0 .47.23.93.68 1.2l12.65 7.44c.9.53 2.01.53 2.91 0l50.73-29.83c.45-.27.68-.73.68-1.2z" fill="url(#paint12_linear)"/><path d="M.68 30.23L51.4.4c.9-.53 2-.53 2.9 0l12.66 7.44c.9.53.9 1.86 0 2.4L16.24 40.05c-.9.53-2 .53-2.9 0L.67 32.63a1.4 1.4 0 010-2.39z" fill="url(#paint13_linear)"/><path d="M90.83 26.36v-3.63L23.17 45.12v3.63c0 .46.23.93.68 1.2l12.66 7.44c.9.53 2 .53 2.9 0l50.74-29.84c.45-.26.67-.73.67-1.2z" fill="url(#paint14_linear)"/><path d="M23.85 43.92L74.58 14.1c.9-.53 2.01-.53 2.91 0l12.66 7.44c.9.53.9 1.86 0 2.4L39.42 53.75c-.9.53-2.01.53-2.91 0L23.85 46.3a1.4 1.4 0 010-2.39z" fill="url(#paint15_linear)"/><path d="M114 40.05v-3.63l-67.65 22.4v3.62c0 .47.22.93.68 1.2l12.65 7.44c.9.53 2.01.53 2.91 0l50.73-29.84c.45-.26.68-.73.68-1.2z" fill="url(#paint16_linear)"/><path d="M47.03 57.62l50.73-29.84c.9-.53 2-.53 2.9 0l12.66 7.45c.9.53.9 1.86 0 2.39L62.6 67.45c-.9.53-2 .53-2.9 0l-12.66-7.44a1.4 1.4 0 010-2.4z" fill="url(#paint17_linear)"/><defs><linearGradient id="paint0_linear" x1="58.45" y1="74.41" x2="63.7" y2="74.41" gradientUnits="userSpaceOnUse"><stop stop-color="#CC8241"/><stop offset="1" stop-color="#DEA861"/></linearGradient><linearGradient id="paint1_linear" x1="71.1" y1="62.61" x2="56.83" y2="70.7" gradientUnits="userSpaceOnUse"><stop stop-color="#DEA861"/><stop offset="1" stop-color="#EBCBA0"/></linearGradient><linearGradient id="paint2_linear" x1="31.66" y1="58.64" x2="36.91" y2="58.64" gradientUnits="userSpaceOnUse"><stop stop-color="#CC8241"/><stop offset="1" stop-color="#DEA861"/></linearGradient><linearGradient id="paint3_linear" x1="44.31" y1="46.84" x2="30.04" y2="54.93" gradientUnits="userSpaceOnUse"><stop stop-color="#DEA861"/><stop offset="1" stop-color="#EBCBA0"/></linearGradient><linearGradient id="paint4_linear" x1="7.64" y1="44.49" x2="12.89" y2="44.49" gradientUnits="userSpaceOnUse"><stop stop-color="#CC8241"/><stop offset="1" stop-color="#DEA861"/></linearGradient><linearGradient id="paint5_linear" x1="20.3" y1="32.69" x2="6.03" y2="40.78" gradientUnits="userSpaceOnUse"><stop stop-color="#DEA861"/><stop offset="1" stop-color="#EBCBA0"/></linearGradient><linearGradient id="paint6_linear" x1="96.35" y1="52.22" x2="101.6" y2="52.22" gradientUnits="userSpaceOnUse"><stop stop-color="#CC8241"/><stop offset="1" stop-color="#DEA861"/></linearGradient><linearGradient id="paint7_linear" x1="109" y1="40.41" x2="94.73" y2="48.5" gradientUnits="userSpaceOnUse"><stop stop-color="#DEA861"/><stop offset="1" stop-color="#EBCBA0"/></linearGradient><linearGradient id="paint8_linear" x1="61.8" y1="54.98" x2="57.35" y2="54.98" gradientUnits="userSpaceOnUse"><stop stop-color="#CC8241"/><stop offset="1" stop-color="#DEA861"/></linearGradient><linearGradient id="paint9_linear" x1="55.24" y1="38.54" x2="23.18" y2="56.7" gradientUnits="userSpaceOnUse"><stop stop-color="#DEA861"/><stop offset="1" stop-color="#EBCBA0"/></linearGradient><linearGradient id="paint10_linear" x1="99.7" y1="32.63" x2="95.25" y2="32.63" gradientUnits="userSpaceOnUse"><stop stop-color="#CC8241"/><stop offset="1" stop-color="#DEA861"/></linearGradient><linearGradient id="paint11_linear" x1="93.14" y1="16.19" x2="61.08" y2="34.36" gradientUnits="userSpaceOnUse"><stop stop-color="#DEA861"/><stop offset="1" stop-color="#EBCBA0"/></linearGradient><linearGradient id="paint12_linear" x1="12.7" y1="26.56" x2="16.66" y2="26.56" gradientUnits="userSpaceOnUse"><stop stop-color="#CC8241"/><stop offset="1" stop-color="#DEA861"/></linearGradient><linearGradient id="paint13_linear" x1="18.23" y1="11.06" x2="47.31" y2="27.54" gradientUnits="userSpaceOnUse"><stop stop-color="#DEA861"/><stop offset="1" stop-color="#EBCBA0"/></linearGradient><linearGradient id="paint14_linear" x1="35.88" y1="40.26" x2="39.84" y2="40.26" gradientUnits="userSpaceOnUse"><stop stop-color="#CC8241"/><stop offset="1" stop-color="#DEA861"/></linearGradient><linearGradient id="paint15_linear" x1="41.4" y1="24.75" x2="70.49" y2="41.23" gradientUnits="userSpaceOnUse"><stop stop-color="#DEA861"/><stop offset="1" stop-color="#EBCBA0"/></linearGradient><linearGradient id="paint16_linear" x1="59.05" y1="53.95" x2="63.01" y2="53.95" gradientUnits="userSpaceOnUse"><stop stop-color="#CC8241"/><stop offset="1" stop-color="#DEA861"/></linearGradient><linearGradient id="paint17_linear" x1="64.58" y1="38.44" x2="93.66" y2="54.93" gradientUnits="userSpaceOnUse"><stop stop-color="#DEA861"/><stop offset="1" stop-color="#EBCBA0"/></linearGradient></defs></svg>