<?xml version="1.0" encoding="UTF-8"?>
<svg style="enable-background:new 0 0 455.731 455.731" version="1.1" viewBox="0 0 456 456" xml:space="preserve" xmlns="http://www.w3.org/2000/svg">
<rect x="-769" y="-102" width="456" height="456" style="fill:none"/>















<g transform="matrix(1.4 0 0 1.4 -96 -95)"><path d="m68 387 22-79c-14-24-22-52-22-81 0-88 71-159 159-159s159 71 159 159-71 159-159 159c-27 0-54-7-78-20zm86-50 4.9 3c21 13 44 19 69 19 73 0 132-59 132-132s-59-132-132-132-132 59-132 132c0 25 7.2 50 21 71l3.3 5.1-13 46z" style="fill:#1bd741"/><path d="m183 153-10-.56c-3.2-.18-6.4.91-8.9 3-5 4.3-13 13-15 24-3.7 16 2 36 17 56s42 52 90 66c16 4.4 28 1.4 37-4.6 7.5-4.8 13-12 15-21l1.6-7.7c.52-2.4-.72-4.9-3-6l-35-16c-2.3-1-5-.38-6.5 1.6l-14 18c-1 1.3-2.8 1.9-4.4 1.3-9.4-3.3-41-16-58-50-.75-1.4-.56-3.2.5-4.4l13-15c1.3-1.5 1.7-3.7.87-5.6l-15-35c-.8-1.9-2.6-3.1-4.6-3.2z" style="fill:#1bd741"/></g></svg>
